#!OML:ASF F:\twosubjects\two\Thursday\Session 1\Rory.ASF
:FULLY-SPECIFIED
:DEGREES
240
root 7.66258 18.3587 -9.80876 0.563934 -6.45591 5.16386
lowerback -3.95691 0.377723 -5.18945
upperback 1.00558 0.789701 -0.558269
thorax 3.19939 0.297533 2.38627
lowerneck -9.29197 -4.22182 -3.03143
upperneck 32.4625 -10.2221 13.6836
head 13.4245 -3.28497 4.48323
rclavicle -2.77677e-015 -6.75868e-015
rhumerus -35.7147 -20.0142 -74.4843
rradius 23.9008
rwrist 26.7081
rhand -25.9595 26.1293
rfingers 7.12502
rthumb 0.58488 -3.84966
lclavicle -2.77677e-015 -6.75868e-015
lhumerus -35.3912 32.2458 72.1537
lradius 19.9557
lwrist -32.1918
lhand -14.2453 29.0566
lfingers 7.12502
lthumb 11.8926 58.6988
rfemur -5.96858 6.66093 14.5187
rtibia 21.6165
rfoot -15.1732 -14.5155
rtoes 6.43604
lfemur -6.39168 -2.79313 -20.6656
ltibia 16.0357
lfoot -10.7699 6.3359
ltoes 0.100775
241
root 7.66237 18.3614 -9.80853 0.551277 -6.42686 5.17129
lowerback -3.62123 0.407424 -4.85745
upperback 0.814309 0.792884 -0.82591
thorax 2.81896 0.319871 1.9194
lowerneck -9.09816 -4.23881 -2.9296
upperneck 32.4205 -10.3412 13.9114
head 13.3919 -3.31022 4.54196
rclavicle 8.34896e-015 -9.14409e-015
rhumerus -36.139 -20.2717 -74.6508
rradius 23.9682
rwrist 26.7914
rhand -25.7 25.589
rfingers 7.12502
rthumb 0.835541 -4.3891
lclavicle 8.34896e-015 -9.14409e-015
lhumerus -35.7554 31.7579 71.6751
lradius 20.0194
lwrist -32.117
lhand -13.8038 29.4449
lfingers 7.12502
lthumb 12.3183 59.062
rfemur -5.9666 6.62155 14.5075
rtibia 21.627
rfoot -15.1595 -14.4998
rtoes 4.93789
lfemur -6.34785 -2.79497 -20.6807
ltibia 16.0073
lfoot -10.4809 6.34392
ltoes -1.61573
242
root 7.66261 18.3602 -9.80976 0.562412 -6.33469 5.30996
lowerback -3.81054 0.437753 -5.21138
upperback 0.943397 0.863895 -0.716408
thorax 3.04859 0.34038 2.23764
lowerneck -9.15347 -4.33247 -2.98454
upperneck 32.199 -10.4111 13.8613
head 13.3139 -3.35752 4.50757
rclavicle 6.23066e-015 -8.15017e-015
rhumerus -36.0014 -20.3307 -74.4177
rradius 23.9496
rwrist 26.7564
rhand -25.6829 25.7281
rfingers 7.12502
rthumb 0.852021 -4.24996
lclavicle 6.23066e-015 -8.15017e-015
lhumerus -35.5842 31.8107 72.0152
lradius 20.0286
lwrist -32.3582
lhand -13.9872 29.4788
lfingers 7.12502
lthumb 12.1414 59.1065
rfemur -5.96047 6.70766 14.3645
rtibia 21.6088
rfoot -15.144 -14.6985
rtoes 4.23875
lfemur -6.38115 -2.77152 -20.8398
ltibia 16.019
lfoot -10.4164 6.26444
ltoes -1.70721
243
root 7.66312 18.3598 -9.81204 0.61495 -6.25348 5.45381
lowerback -3.93047 0.463316 -5.419
upperback 0.969616 0.917907 -0.735711
thorax 3.13702 0.360802 2.33894
lowerneck -9.19973 -4.36925 -2.80187
upperneck 32.0984 -10.4493 13.7468
head 13.2667 -3.36586 4.41538
rclavicle -7.04443e-015 1.39149e-014
rhumerus -36.0254 -20.4276 -74.3292
rradius 23.9469
rwrist 26.632
rhand -25.7336 25.9174
rfingers 7.12502
rthumb 0.803087 -4.06087
lclavicle -7.04443e-015 1.39149e-014
lhumerus -35.5401 32.0581 71.887
lradius 20.0413
lwrist -33.5187
lhand -13.0258 28.9248
lfingers 7.12502
lthumb 13.0683 58.4954
rfemur -5.98963 6.76061 14.2052
rtibia 21.5656
rfoot -15.1624 -14.8117
rtoes 3.88052
lfemur -6.51973 -2.75786 -20.9919
ltibia 16.0934
lfoot -10.4505 6.15736
ltoes -2.23304
244
root 7.66279 18.3619 -9.81383 0.659475 -6.21792 5.38378
lowerback -3.89404 0.458242 -5.2694
upperback 0.913653 0.900408 -0.78302
thorax 3.06239 0.358244 2.20443
lowerneck -9.16339 -4.35266 -2.63071
upperneck 32.0886 -10.4311 13.6598
head 13.2368 -3.34925 4.3514
rclavicle -1.82385e-014 -4.37326e-015
rhumerus -36.095 -20.441 -74.3892
rradius 23.8987
rwrist 26.5258
rhand -25.7078 25.8311
rfingers 7.12502
rthumb 0.828003 -4.14702
lclavicle -1.82385e-014 -4.37326e-015
lhumerus -35.6906 32.3016 71.481
lradius 20.0404
lwrist -34.3179
lhand -11.8522 28.4858
lfingers 7.12502
lthumb 14.1995 57.9805
rfemur -6.01675 6.77792 14.2879
rtibia 21.5833
rfoot -15.1901 -14.8223
rtoes 3.8068
lfemur -6.56316 -2.67853 -20.916
ltibia 16.0721
lfoot -10.4197 6.07364
ltoes -1.33047
245
root 7.66205 18.36 -9.81436 0.651367 -6.19844 5.28592
lowerback -3.6534 0.419759 -4.94005
upperback 0.833714 0.818142 -0.907791
thorax 2.85569 0.330571 1.88308
lowerneck -9.26128 -4.29911 -2.46111
upperneck 32.1721 -10.393 13.6136
head 13.2788 -3.31076 4.31006
rclavicle -1.16693e-014 -1.59028e-014
rhumerus -36.1685 -20.5339 -74.5509
rradius 23.827
rwrist 26.6549
rhand -25.6438 25.77
rfingers 7.12502
rthumb 0.889787 -4.20787
lclavicle -1.16693e-014 -1.59028e-014
lhumerus -35.7942 32.3278 71.0999
lradius 19.7077
lwrist -33.3642
lhand -13.3644 27.8737
lfingers 7.12502
lthumb 12.742 57.4649
rfemur -6.00328 6.796 14.4039
rtibia 21.6178
rfoot -15.2245 -14.8447
rtoes 3.81314
lfemur -6.52892 -2.71746 -20.7994
ltibia 16.014
lfoot -10.5052 6.13707
ltoes 1.62682
246
root 7.66302 18.3563 -9.81263 0.667949 -6.18932 5.36435
lowerback -3.94373 0.371215 -5.33893
upperback 1.05468 0.792533 -0.650404
thorax 3.24245 0.294926 2.375
lowerneck -9.52028 -4.29597 -2.71246
upperneck 31.9979 -10.2758 13.529
head 13.2504 -3.29357 4.32452
rclavicle -1.60891e-014 1.63003e-014
rhumerus -35.7354 -20.6051 -74.2164
rradius 23.7029
rwrist 26.8914
rhand -25.6625 25.8882
rfingers 7.12502
rthumb 0.87172 -4.08979
lclavicle -1.60891e-014 1.63003e-014
lhumerus -35.5914 33.1034 71.3446
lradius 19.3394
lwrist -33.0595
lhand -14.5821 27.2869
lfingers 7.12502
lthumb 11.5678 56.9477
rfemur -6.00439 6.65679 14.2954
rtibia 21.6008
rfoot -15.244 -14.7169
rtoes 3.9784
lfemur -6.56224 -2.82927 -20.8774
ltibia 16.0308
lfoot -10.5805 6.24381
ltoes 0.877007
247
root 7.66398 18.3581 -9.81134 0.715658 -6.13085 5.44297
lowerback -3.69985 0.35306 -5.07687
upperback 0.854885 0.739695 -0.915585
thorax 2.90794 0.287643 1.94752
lowerneck -9.51452 -4.25089 -2.537
upperneck 32.1257 -10.3252 13.6795
head 13.3156 -3.27312 4.35432
rclavicle -1.78906e-015 5.1684e-015
rhumerus -36.0949 -21.0284 -74.266
rradius 23.6114
rwrist 27.2995
rhand -25.8194 25.9155
rfingers 7.12502
rthumb 0.720218 -4.06301
lclavicle -1.78906e-015 5.1684e-015
lhumerus -35.9444 32.7153 70.9035
lradius 19.6202
lwrist -32.9002
lhand -13.9222 27.5773
lfingers 7.12502
lthumb 12.2041 57.2013
rfemur -6.02291 6.6295 14.2039
rtibia 21.5733
rfoot -15.2428 -14.7596
rtoes 4.25988
lfemur -6.61267 -2.78928 -20.9769
ltibia 16.0571
lfoot -10.4522 6.11481
ltoes -1.54336
248
root 7.66275 18.3611 -9.8131 0.767885 -6.05457 5.36249
lowerback -3.97586 0.315652 -5.32806
upperback 1.02475 0.718267 -0.628883
thorax 3.23532 0.258711 2.38656
lowerneck -9.64246 -4.29044 -2.76022
upperneck 32.0168 -10.2724 13.5577
head 13.29 -3.28831 4.34454
rclavicle -1.90895e-014 -5.36719e-015
rhumerus -35.7077 -20.8708 -74.0176
rradius 23.508
rwrist 27.2476
rhand -25.8942 25.6158
rfingers 7.12502
rthumb 0.647937 -4.36295
lclavicle -1.90895e-014 -5.36719e-015
lhumerus -35.8299 32.8552 71.4507
lradius 19.9681
lwrist -32.787
lhand -14.7798 27.0899
lfingers 7.12502
lthumb 11.3771 56.7612
rfemur -6.06765 6.68097 14.3084
rtibia 21.5806
rfoot -15.2506 -14.9072
rtoes 4.61312
lfemur -6.662 -2.83378 -20.8798
ltibia 16.0498
lfoot -10.386 6.0089
ltoes -1.43989
249
root 7.66039 18.3617 -9.81648 0.822277 -6.09036 5.37437
lowerback -3.69894 0.348598 -5.02943
upperback 0.760467 0.727086 -0.885674
thorax 2.81065 0.285761 1.95067
lowerneck -9.41145 -4.27344 -2.57875
upperneck 32.0841 -10.3428 13.688
head 13.2791 -3.29115 4.36211
rclavicle -1.97667e-014 3.97569e-015
rhumerus -36.2379 -21.0278 -74.1731
rradius 23.5975
rwrist 27.3201
rhand -25.7171 25.5303
rfingers 7.12502
rthumb 0.818985 -4.44784
lclavicle -1.97667e-014 3.97569e-015
lhumerus -36.1912 32.1835 71.0515
lradius 20.0975
lwrist -32.4041
lhand -16.3688 26.0345
lfingers 7.12502
lthumb 9.84432 55.7843
rfemur -6.18553 6.69992 14.2921
rtibia 21.631
rfoot -15.2557 -14.8736
rtoes 4.72116
lfemur -6.71817 -2.86203 -20.8706
ltibia 15.9927
lfoot -10.3719 6.02941
ltoes -1.0044
250
root 7.65941 18.3615 -9.81759 0.818993 -6.16134 5.52984
lowerback -3.96388 0.425056 -5.48857
upperback 0.868432 0.868029 -0.708115
thorax 3.05368 0.338453 2.40306
lowerneck -9.27667 -4.34259 -2.76559
upperneck 31.7985 -10.3406 13.6683
head 13.1311 -3.33026 4.37512
rclavicle -1.61637e-014 6.75868e-015
rhumerus -36.1889 -21.0271 -73.8372
rradius 23.6947
rwrist 27.2221
rhand -25.5132 25.5942
rfingers 7.12502
rthumb 1.01592 -4.38309
lclavicle -1.61637e-014 6.75868e-015
lhumerus -36.2259 32.5168 71.3013
lradius 20.1627
lwrist -32.8213
lhand -15.3206 26.8871
lfingers 7.12502
lthumb 10.8555 56.5866
rfemur -6.26905 6.66471 14.1071
rtibia 21.6984
rfoot -15.2322 -14.7513
rtoes 4.66673
lfemur -6.67874 -2.8072 -21.0406
ltibia 15.91
lfoot -10.3081 6.04893
ltoes -1.14946
251
root 7.65947 18.3599 -9.81541 0.792011 -6.07412 5.65902
lowerback -3.25621 0.422665 -5.0165
upperback 0.427401 0.790586 -1.16083
thorax 2.2168 0.338436 1.6571
lowerneck -9.04802 -4.27688 -2.4742
upperneck 31.9833 -10.4043 13.859
head 13.1711 -3.30636 4.40491
rclavicle 9.0447e-015 2.18663e-015
rhumerus -36.9673 -21.3015 -74.0539
rradius 23.731
rwrist 27.45
rhand -25.6506 25.4398
rfingers 7.12502
rthumb 0.883188 -4.53811
lclavicle 9.0447e-015 2.18663e-015
lhumerus -36.9126 31.8226 70.5031
lradius 20.4652
lwrist -32.4446
lhand -13.8068 27.9619
lfingers 7.12502
lthumb 12.3154 57.5792
rfemur -6.27308 6.46003 13.9489
rtibia 21.7721
rfoot -15.2496 -14.6318
rtoes 5.73938
lfemur -6.61783 -2.96795 -21.1795
ltibia 15.8221
lfoot -10.3594 6.05385
ltoes -0.553316
252
root 7.65735 18.3591 -9.81657 0.827698 -5.93118 5.57288
lowerback -3.9257 0.278101 -5.56805
upperback 0.963695 0.674265 -0.606632
thorax 3.14503 0.235436 2.54033
lowerneck -9.56844 -4.28865 -2.94209
upperneck 31.6891 -10.2009 13.6485
head 13.1375 -3.28355 4.40884
rclavicle -9.74666e-015 7.95139e-016
rhumerus -35.8142 -20.9774 -73.801
rradius 23.5795
rwrist 27.4617
rhand -25.7493 25.1931
rfingers 7.12502
rthumb 0.787853 -4.78518
lclavicle -9.74666e-015 7.95139e-016
lhumerus -36.2915 33.0271 71.3083
lradius 20.4619
lwrist -32.6449
lhand -13.8296 28.0157
lfingers 7.12502
lthumb 12.2934 57.6343
rfemur -6.30016 6.41918 14.0547
rtibia 21.8416
rfoot -15.3092 -14.7056
rtoes 4.99462
lfemur -6.65477 -3.05567 -21.0703
ltibia 15.7348
lfoot -10.5463 5.98255
ltoes 0.883678
253
root 7.65563 18.3581 -9.82135 0.856958 -5.91556 5.44561
lowerback -3.20999 0.236293 -4.90881
upperback 0.538758 0.535154 -0.972498
thorax 2.32145 0.207319 1.77817
lowerneck -9.52672 -4.19547 -2.58643
upperneck 32.0291 -10.2245 13.698
head 13.2672 -3.23697 4.3801
rclavicle -1.37814e-014 -2.06736e-014
rhumerus -36.4389 -21.006 -74.2079
rradius 23.6431
rwrist 27.5549
rhand -25.7377 25.3372
rfingers 7.12502
rthumb 0.799099 -4.641
lclavicle -1.37814e-014 -2.06736e-014
lhumerus -36.8584 32.3734 70.5371
lradius 20.6168
lwrist -32.0478
lhand -13.6975 28.0852
lfingers 7.12502
lthumb 12.4208 57.6961
rfemur -6.33249 6.54537 14.2153
rtibia 21.8571
rfoot -15.3232 -14.8093
rtoes 5.38354
lfemur -6.70578 -3.04232 -20.9168
ltibia 15.7345
lfoot -10.7144 6.00286
ltoes 1.76804
254
root 7.65506 18.3566 -9.8228 0.855792 -5.96932 5.41087
lowerback -3.8747 0.26268 -5.43571
upperback 0.972069 0.641733 -0.535641
thorax 3.1279 0.221404 2.53712
lowerneck -9.66977 -4.26941 -2.88874
upperneck 31.6219 -10.139 13.54
head 13.112 -3.26069 4.35868
rclavicle -7.72154e-015 -5.1684e-015
rhumerus -35.6723 -20.6895 -73.9288
rradius 23.6173
rwrist 27.2887
rhand -25.8404 25.5008
rfingers 7.12502
rthumb 0.699897 -4.47778
lclavicle -7.72154e-015 -5.1684e-015
lhumerus -36.3527 33.1488 71.2836
lradius 20.6129
lwrist -32.5077
lhand -13.7984 27.802
lfingers 7.12502
lthumb 12.3235 57.4189
rfemur -6.32126 6.54004 14.2583
rtibia 21.7935
rfoot -15.242 -14.7886
rtoes 6.77792
lfemur -6.7611 -3.03288 -20.8712
ltibia 15.8709
lfoot -10.6449 6.04704
ltoes 0.320408
